<svg xmlns="http://www.w3.org/2000/svg" viewBox="0 0 720 210" width="720" height="210">
  <!--
    FreePalp ЛОГО (горизонтальный lockup, EN) — для README/сайта/промо.
    Знак: щупальце-конус с завитком держит ключ. Слово FreePalp + AI ORCHESTRATOR
    + три чипа-фичи (ReAct Loop / Self-Correction / Multi-Agent).
  -->
  <defs>
    <linearGradient id="lgTent" x1="10%" y1="100%" x2="80%" y2="0%">
      <stop offset="0%"   stop-color="#8e1e3a"/>
      <stop offset="50%"  stop-color="#e0354b"/>
      <stop offset="100%" stop-color="#ff7a59"/>
    </linearGradient>
    <linearGradient id="lgKey" x1="0%" y1="0%" x2="0%" y2="100%">
      <stop offset="0%"   stop-color="#ffd969"/>
      <stop offset="55%"  stop-color="#f2a93b"/>
      <stop offset="100%" stop-color="#d97e16"/>
    </linearGradient>
    <linearGradient id="lgWord" x1="0%" y1="0%" x2="100%" y2="100%">
      <stop offset="0%"   stop-color="#ff7a59"/>
      <stop offset="60%"  stop-color="#e0354b"/>
      <stop offset="100%" stop-color="#b22743"/>
    </linearGradient>
    <filter id="lgSh" x="-30%" y="-30%" width="160%" height="160%">
      <feDropShadow dx="0" dy="4" stdDeviation="6" flood-color="#000" flood-opacity="0.30"/>
    </filter>
  </defs>

  <!-- ═══ Знак (изогнутое щупальце + ключ в хвате) ═══ -->
  <g transform="translate(6,4)">
    <g filter="url(#lgSh)">
      <path d="M 26,200 C 18,150 22,100 44,62 C 64,28 106,12 140,26
               C 168,38 182,66 174,92 C 168,113 148,124 131,116
               C 118,110 114,94 124,85 C 131,79 141,82 143,90
               C 145,97 139,102 133,100 C 137,108 149,108 156,99
               C 165,87 161,68 146,58 C 124,44 92,52 76,76
               C 60,99 60,140 72,200 Z" fill="url(#lgTent)"/>
    </g>
    <path d="M 30,196 C 24,150 28,102 48,66 C 66,35 104,20 136,32"
          fill="none" stroke="#ffd2c2" stroke-opacity="0.45"
          stroke-width="9" stroke-linecap="round"/>
    <g fill="#ffc4b3">
      <circle cx="80" cy="180" r="7.5" opacity="0.55"/>
      <circle cx="72" cy="148" r="7" opacity="0.6"/>
      <circle cx="72" cy="116" r="6.5" opacity="0.65"/>
      <circle cx="82" cy="88" r="6" opacity="0.7"/>
      <circle cx="102" cy="68" r="5.5" opacity="0.7"/>
      <circle cx="126" cy="60" r="4.5" opacity="0.7"/>
      <circle cx="146" cy="72" r="3.5" opacity="0.7"/>
    </g>
    <g filter="url(#lgSh)">
      <circle cx="137" cy="99" r="15" fill="none" stroke="url(#lgKey)" stroke-width="8.5"/>
      <rect x="132" y="112" width="10" height="48" rx="5" fill="url(#lgKey)"/>
      <rect x="139" y="128" width="15" height="7.5" rx="3.7" fill="url(#lgKey)"/>
      <rect x="139" y="143" width="11" height="7.5" rx="3.7" fill="url(#lgKey)"/>
    </g>
    <path d="M 124,93 A 15,15 0 0 1 149,92" fill="none"
          stroke="#fff" stroke-opacity="0.35" stroke-width="4" stroke-linecap="round"/>
    <rect x="132" y="113" width="4" height="44" rx="2" fill="#fff" opacity="0.18"/>
    <path d="M 124,85 C 131,79 141,82 143,90 C 145,97 139,104 132,101"
          fill="none" stroke="url(#lgTent)" stroke-width="13" stroke-linecap="round"/>
    <path d="M 124,85 C 131,79 141,82 143,90"
          fill="none" stroke="#ffd2c2" stroke-opacity="0.4" stroke-width="4" stroke-linecap="round"/>
  </g>

  <!-- ═══ Словесная часть (EN) ═══ -->
  <g font-family="'Segoe UI', 'Segoe UI Variable Display', system-ui, sans-serif">
    <text x="214" y="92" font-size="78" font-weight="800" letter-spacing="-2">
      <tspan fill="#e8edf6">Free</tspan><tspan fill="url(#lgWord)">Palp</tspan>
    </text>
    <rect x="218" y="106" width="332" height="3.5" rx="1.75" fill="url(#lgKey)" opacity="0.85"/>
    <text x="219" y="130" font-size="17" font-weight="600" letter-spacing="5"
          fill="#8b9ab8">AI ORCHESTRATOR</text>

    <!-- Чипы-фичи -->
    <g font-size="13" font-weight="600">
      <rect x="218" y="150" width="96" height="26" rx="13" fill="rgba(99,179,237,0.12)" stroke="#63b3ed" stroke-opacity="0.6"/>
      <text x="266" y="167" fill="#63b3ed" text-anchor="middle">ReAct Loop</text>
      <rect x="322" y="150" width="124" height="26" rx="13" fill="rgba(159,122,234,0.12)" stroke="#9f7aea" stroke-opacity="0.6"/>
      <text x="384" y="167" fill="#9f7aea" text-anchor="middle">Self-Correction</text>
      <rect x="454" y="150" width="104" height="26" rx="13" fill="rgba(72,187,120,0.12)" stroke="#48bb78" stroke-opacity="0.6"/>
      <text x="506" y="167" fill="#48bb78" text-anchor="middle">Multi-Agent</text>
    </g>
  </g>
</svg>
